<svg xmlns="http://www.w3.org/2000/svg" viewBox="0 0 800 500">
  <defs>
    <linearGradient id="bmySky" x1="0" y1="0" x2="0" y2="1"><stop offset="0%" stop-color="#3e2723"/><stop offset="100%" stop-color="#795548"/></linearGradient>
  </defs>
  <rect width="800" height="500" fill="url(#bmySky)"/>
  <rect x="0" y="350" width="800" height="150" fill="#5d4037"/>
  <line x1="0" y1="350" x2="800" y2="350" stroke="#8d6e63" stroke-width="3"/>
  <!-- 俑士列阵 - 第一排 -->
  <g transform="translate(0,0)">
    <rect x="60" y="280" width="16" height="70" fill="#9e9e9e" rx="3"/>
    <circle cx="68" cy="272" r="8" fill="#bdbdbd"/>
    <rect x="62" y="268" width="3" height="6" fill="#8d6e63"/>
    <rect x="110" y="280" width="16" height="70" fill="#9e9e9e" rx="3"/>
    <circle cx="118" cy="272" r="8" fill="#bdbdbd"/>
    <rect x="160" y="280" width="16" height="70" fill="#9e9e9e" rx="3"/>
    <circle cx="168" cy="272" r="8" fill="#bdbdbd"/>
    <rect x="210" y="280" width="16" height="70" fill="#9e9e9e" rx="3"/>
    <circle cx="218" cy="272" r="8" fill="#bdbdbd"/>
    <rect x="260" y="280" width="16" height="70" fill="#9e9e9e" rx="3"/>
    <circle cx="268" cy="272" r="8" fill="#bdbdbd"/>
    <rect x="310" y="280" width="16" height="70" fill="#9e9e9e" rx="3"/>
    <circle cx="318" cy="272" r="8" fill="#bdbdbd"/>
    <rect x="360" y="280" width="16" height="70" fill="#9e9e9e" rx="3"/>
    <circle cx="368" cy="272" r="8" fill="#bdbdbd"/>
    <rect x="410" y="280" width="16" height="70" fill="#9e9e9e" rx="3"/>
    <circle cx="418" cy="272" r="8" fill="#bdbdbd"/>
    <rect x="460" y="280" width="16" height="70" fill="#9e9e9e" rx="3"/>
    <circle cx="468" cy="272" r="8" fill="#bdbdbd"/>
    <rect x="510" y="280" width="16" height="70" fill="#9e9e9e" rx="3"/>
    <circle cx="518" cy="272" r="8" fill="#bdbdbd"/>
    <rect x="560" y="280" width="16" height="70" fill="#9e9e9e" rx="3"/>
    <circle cx="568" cy="272" r="8" fill="#bdbdbd"/>
    <rect x="610" y="280" width="16" height="70" fill="#9e9e9e" rx="3"/>
    <circle cx="618" cy="272" r="8" fill="#bdbdbd"/>
    <rect x="660" y="280" width="16" height="70" fill="#9e9e9e" rx="3"/>
    <circle cx="668" cy="272" r="8" fill="#bdbdbd"/>
    <rect x="710" y="280" width="16" height="70" fill="#9e9e9e" rx="3"/>
    <circle cx="718" cy="272" r="8" fill="#bdbdbd"/>
  </g>
  <!-- 第二排 -->
  <g transform="translate(0,40)">
    <rect x="85" y="280" width="16" height="70" fill="#8d6e63" rx="3"/>
    <circle cx="93" cy="272" r="8" fill="#a1887f"/>
    <rect x="135" y="280" width="16" height="70" fill="#8d6e63" rx="3"/>
    <circle cx="143" cy="272" r="8" fill="#a1887f"/>
    <rect x="185" y="280" width="16" height="70" fill="#8d6e63" rx="3"/>
    <circle cx="193" cy="272" r="8" fill="#a1887f"/>
    <rect x="235" y="280" width="16" height="70" fill="#8d6e63" rx="3"/>
    <circle cx="243" cy="272" r="8" fill="#a1887f"/>
    <rect x="285" y="280" width="16" height="70" fill="#8d6e63" rx="3"/>
    <circle cx="293" cy="272" r="8" fill="#a1887f"/>
    <rect x="335" y="280" width="16" height="70" fill="#8d6e63" rx="3"/>
    <circle cx="343" cy="272" r="8" fill="#a1887f"/>
    <rect x="385" y="280" width="16" height="70" fill="#8d6e63" rx="3"/>
    <circle cx="393" cy="272" r="8" fill="#a1887f"/>
    <rect x="435" y="280" width="16" height="70" fill="#8d6e63" rx="3"/>
    <circle cx="443" cy="272" r="8" fill="#a1887f"/>
    <rect x="485" y="280" width="16" height="70" fill="#8d6e63" rx="3"/>
    <circle cx="493" cy="272" r="8" fill="#a1887f"/>
    <rect x="535" y="280" width="16" height="70" fill="#8d6e63" rx="3"/>
    <circle cx="543" cy="272" r="8" fill="#a1887f"/>
    <rect x="585" y="280" width="16" height="70" fill="#8d6e63" rx="3"/>
    <circle cx="593" cy="272" r="8" fill="#a1887f"/>
    <rect x="635" y="280" width="16" height="70" fill="#8d6e63" rx="3"/>
    <circle cx="643" cy="272" r="8" fill="#a1887f"/>
  </g>
  <!-- 第三排 -->
  <g transform="translate(0,80)">
    <rect x="100" y="280" width="14" height="65" fill="#757575" rx="3"/>
    <circle cx="107" cy="275" r="7" fill="#9e9e9e"/>
    <rect x="155" y="280" width="14" height="65" fill="#757575" rx="3"/>
    <circle cx="162" cy="275" r="7" fill="#9e9e9e"/>
    <rect x="210" y="280" width="14" height="65" fill="#757575" rx="3"/>
    <circle cx="217" cy="275" r="7" fill="#9e9e9e"/>
    <rect x="265" y="280" width="14" height="65" fill="#757575" rx="3"/>
    <circle cx="272" cy="275" r="7" fill="#9e9e9e"/>
    <rect x="320" y="280" width="14" height="65" fill="#757575" rx="3"/>
    <circle cx="327" cy="275" r="7" fill="#9e9e9e"/>
    <rect x="375" y="280" width="14" height="65" fill="#757575" rx="3"/>
    <circle cx="382" cy="275" r="7" fill="#9e9e9e"/>
    <rect x="430" y="280" width="14" height="65" fill="#757575" rx="3"/>
    <circle cx="437" cy="275" r="7" fill="#9e9e9e"/>
    <rect x="485" y="280" width="14" height="65" fill="#757575" rx="3"/>
    <circle cx="492" cy="275" r="7" fill="#9e9e9e"/>
    <rect x="540" y="280" width="14" height="65" fill="#757575" rx="3"/>
    <circle cx="547" cy="275" r="7" fill="#9e9e9e"/>
    <rect x="595" y="280" width="14" height="65" fill="#757575" rx="3"/>
    <circle cx="602" cy="275" r="7" fill="#9e9e9e"/>
  </g>
  <text x="400" y="480" text-anchor="middle" fill="#ffd54f" font-size="22" font-weight="bold" font-family="sans-serif">西安兵马俑</text>
  <text x="400" y="497" text-anchor="middle" fill="#ffcc80" font-size="11" font-family="sans-serif">Terracotta Warriors</text>
</svg>