<svg xmlns="http://www.w3.org/2000/svg" viewBox="0 0 800 500">
  <defs><linearGradient id="ccSky" x1="0" y1="0" x2="0" y2="1"><stop offset="0%" stop-color="#1a237e"/><stop offset="30%" stop-color="#42a5f5"/><stop offset="100%" stop-color="#e3f2fd"/></linearGradient></defs>
  <rect width="800" height="500" fill="url(#ccSky)"/>
  <circle cx="680" cy="60" r="45" fill="#fff9c4" opacity="0.8"/>
  <!-- 远山 -->
  <path d="M0,400 Q100,250 200,320 Q300,200 400,300 Q500,180 600,280 Q700,220 800,300 L800,500 L0,500Z" fill="#5d4037" opacity="0.3"/>
  <!-- 中景山 -->
  <path d="M0,450 Q80,300 180,380 Q280,280 380,350 Q480,260 580,340 Q680,290 800,350 L800,500 L0,500Z" fill="#4e342e" opacity="0.5"/>
  <!-- 近山 -->
  <path d="M0,500 Q100,350 250,400 Q350,320 450,380 Q550,300 650,370 Q750,330 800,380 L800,500 L0,500Z" fill="#3e2723"/>
  <!-- 长城墙体 -->
  <path d="M50,480 Q120,390 180,400 Q220,370 280,375 Q340,340 400,345 Q460,320 520,325 Q580,300 640,305 Q700,280 780,340" stroke="#9e9e9e" stroke-width="10" fill="none"/>
  <!-- 敌楼 -->
  <rect x="170" y="385" width="22" height="28" fill="#795548" rx="2"/>
  <rect x="173" y="378" width="16" height="10" fill="#8d6e63"/>
  <rect x="270" y="360" width="22" height="28" fill="#795548" rx="2"/>
  <rect x="273" y="353" width="16" height="10" fill="#8d6e63"/>
  <rect x="390" y="330" width="22" height="28" fill="#795548" rx="2"/>
  <rect x="393" y="323" width="16" height="10" fill="#8d6e63"/>
  <rect x="510" y="310" width="22" height="28" fill="#795548" rx="2"/>
  <rect x="513" y="303" width="16" height="10" fill="#8d6e63"/>
  <rect x="630" y="292" width="22" height="28" fill="#795548" rx="2"/>
  <rect x="633" y="285" width="16" height="10" fill="#8d6e63"/>
  <!-- 树木 -->
  <circle cx="100" cy="420" r="12" fill="#2e7d32"/>
  <circle cx="130" cy="410" r="10" fill="#388e3c"/>
  <circle cx="550" cy="380" r="12" fill="#2e7d32"/>
  <circle cx="590" cy="370" r="10" fill="#388e3c"/>
  <circle cx="700" cy="350" r="12" fill="#2e7d32"/>
  <text x="400" y="475" text-anchor="middle" fill="#fff" font-size="22" font-weight="bold" font-family="sans-serif">长城 · 八达岭</text>
  <text x="400" y="494" text-anchor="middle" fill="#ccc" font-size="11" font-family="sans-serif">Great Wall · Badaling</text>
</svg>