<svg xmlns="http://www.w3.org/2000/svg" viewBox="0 0 800 500">
  <defs>
    <linearGradient id="glSky" x1="0" y1="0" x2="0" y2="1"><stop offset="0%" stop-color="#e0f7fa"/><stop offset="100%" stop-color="#fff"/></linearGradient>
  </defs>
  <rect width="800" height="500" fill="url(#glSky)"/>
  <!-- 山峰 -->
  <path d="M0,400 Q30,200 80,80 L130,200 L180,400Z" fill="#66bb6a" opacity="0.7"/>
  <path d="M120,400 Q150,250 200,150 L250,250 L300,400Z" fill="#4caf50" opacity="0.8"/>
  <path d="M250,400 Q280,220 330,120 L380,220 L430,400Z" fill="#43a047" opacity="0.9"/>
  <path d="M400,400 Q430,240 470,180 L510,260 L550,400Z" fill="#66bb6a" opacity="0.7"/>
  <path d="M520,400 Q550,260 600,200 L640,280 L680,400Z" fill="#4caf50" opacity="0.8"/>
  <path d="M620,400 Q650,280 690,220 L720,300 L760,400Z" fill="#81c784" opacity="0.6"/>
  <!-- 水面倒影 -->
  <path d="M80,380 Q130,420 200,380 Q300,420 400,380 Q500,420 600,380 Q700,420 800,380 L800,500 L0,500Z" fill="#b2ebf2" opacity="0.6"/>
  <!-- 船 -->
  <path d="M300,410 Q320,405 340,410 Q330,415 320,415Z" fill="#5d4037"/>
  <line x1="320" y1="405" x2="320" y2="395" stroke="#5d4037" stroke-width="1.5"/>
  <path d="M450,415 Q470,410 490,415 Q480,420 470,420Z" fill="#5d4037"/>
  <!-- 竹筏 -->
  <rect x="200" y="430" width="40" height="4" fill="#8d6e63" rx="2"/>
  <rect x="205" y="434" width="30" height="3" fill="#8d6e63" rx="1.5"/>
  <circle cx="210" cy="428" r="4" fill="#5d4037"/>
  <!-- 鸟 -->
  <path d="M150,100 Q155,95 160,100" stroke="#333" stroke-width="1.5" fill="none"/>
  <path d="M170,90 Q175,85 180,90" stroke="#333" stroke-width="1.5" fill="none"/>
  <path d="M140,110 Q145,105 150,110" stroke="#333" stroke-width="1.5" fill="none"/>
  <text x="400" y="478" text-anchor="middle" fill="#004d40" font-size="22" font-weight="bold" font-family="sans-serif">桂林漓江</text>
  <text x="400" y="496" text-anchor="middle" fill="#00695c" font-size="11" font-family="sans-serif">Li River · Guilin</text>
</svg>