<svg xmlns="http://www.w3.org/2000/svg" viewBox="0 0 800 500">
  <defs>
    <linearGradient id="ljSky" x1="0" y1="0" x2="0" y2="1"><stop offset="0%" stop-color="#4a148c"/><stop offset="60%" stop-color="#7b1fa2"/><stop offset="100%" stop-color="#e1bee7"/></linearGradient>
  </defs>
  <rect width="800" height="500" fill="url(#ljSky)"/>
  <!-- 玉龙雪山 -->
  <path d="M500,350 Q530,180 570,100 L610,180 L640,350Z" fill="#e8eaf6"/>
  <path d="M570,100 L585,150" stroke="#9fa8da" stroke-width="2"/>
  <path d="M555,160 L590,160" stroke="#c5cae9" stroke-width="1"/>
  <!-- 古城屋顶 -->
  <polygon points="50,350 90,320 130,350" fill="#5d4037"/>
  <polygon points="80,340 120,310 160,340" fill="#6d4c41"/>
  <polygon points="120,345 160,315 200,345" fill="#5d4037"/>
  <polygon points="160,340 200,310 240,340" fill="#795548"/>
  <polygon points="200,350 240,320 280,350" fill="#5d4037"/>
  <polygon points="240,345 280,315 320,345" fill="#6d4c41"/>
  <polygon points="50,370 90,340 130,370" fill="#5d4037"/>
  <polygon points="120,365 160,335 200,365" fill="#6d4c41"/>
  <polygon points="180,370 220,340 260,370" fill="#5d4037"/>
  <rect x="70" y="345" width="8" height="10" fill="#d7ccc8"/>
  <rect x="140" y="340" width="8" height="10" fill="#d7ccc8"/>
  <rect x="210" y="345" width="8" height="10" fill="#d7ccc8"/>
  <!-- 灯光 -->
  <circle cx="75" cy="350" r="3" fill="#ffd54f" opacity="0.8"/>
  <circle cx="145" cy="345" r="3" fill="#ffd54f" opacity="0.8"/>
  <circle cx="215" cy="350" r="3" fill="#ffd54f" opacity="0.8"/>
  <circle cx="110" cy="365" r="2.5" fill="#ffd54f" opacity="0.7"/>
  <circle cx="190" cy="370" r="2.5" fill="#ffd54f" opacity="0.7"/>
  <!-- 流水 -->
  <path d="M0,420 Q200,410 400,420 Q600,430 800,420" stroke="#4dd0e1" stroke-width="8" fill="none" opacity="0.5"/>
  <!-- 拱桥 -->
  <path d="M280,420 Q300,405 320,420" stroke="#8d6e63" stroke-width="6" fill="none"/>
  <text x="400" y="475" text-anchor="middle" fill="#fff" font-size="22" font-weight="bold" font-family="sans-serif">丽江古城</text>
  <text x="400" y="494" text-anchor="middle" fill="#e1bee7" font-size="11" font-family="sans-serif">Lijiang Old Town</text>
</svg>